<svg width="32" height="32" viewBox="0 0 32 32" fill="none" xmlns="http://www.w3.org/2000/svg">
<path d="M12.5333 22L16 18.5333L19.4667 22L21.3333 20.1333L17.8667 16.6667L21.3333 13.2L19.4667 11.3333L16 14.8L12.5333 11.3333L10.6667 13.2L14.1333 16.6667L10.6667 20.1333L12.5333 22ZM9.33333 28C8.6 28 7.972 27.7387 7.44933 27.216C6.92667 26.6933 6.66578 26.0658 6.66667 25.3333V8H5.33333V5.33333H12V4H20V5.33333H26.6667V8H25.3333V25.3333C25.3333 26.0667 25.072 26.6947 24.5493 27.2173C24.0267 27.74 23.3991 28.0009 22.6667 28H9.33333ZM22.6667 8H9.33333V25.3333H22.6667V8Z" fill="black"/>
</svg>
